External Loads File
version=1
nRows=62
nColumns=13
Range=5.000000e-03-10 seconds
endheader
time 	forceRightX 	forceRightY 	forceRightZ 	pointRightX 	pointRightY 	pointRightZ 	forceLeftX 	forceLeftY 	forceLeftZ 	pointLeftX 	pointLeftY 	pointLeftZ 		
0.005000 5.615444 279.026354 -0.000000 0.356740 0.477433 -0.118711 -26.074625 289.565142 -0.000000 0.141481 0.194478 -0.358422
0.010000 6.120630 279.556155 -0.000000 0.356716 0.477459 -0.118697 -26.062857 289.408286 -0.000000 0.141507 0.194471 -0.358424
0.015000 6.570904 279.997702 -0.000000 0.356705 0.477464 -0.118706 -26.032585 289.229253 -0.000000 0.141524 0.194447 -0.358428
0.020000 6.190675 280.349227 -0.000000 0.356701 0.477466 -0.118705 -26.726463 288.978338 -0.000000 0.141538 0.192904 -0.358422
0.025000 7.003811 280.551815 -0.000000 0.356707 0.477515 -0.118744 -26.016536 288.871894 -0.000000 0.141298 0.193817 -0.358761
0.030000 7.398168 280.631493 -0.000000 0.356715 0.477531 -0.118743 -25.549515 288.776998 -0.000000 0.141328 0.194456 -0.358763
0.035000 7.339991 280.573566 -0.000000 0.356707 0.477552 -0.118747 -25.368915 288.695742 -0.000000 0.141343 0.194440 -0.358756
0.040000 7.195941 280.366996 -0.000000 0.356716 0.477562 -0.118760 -25.127196 288.665416 -0.000000 0.141348 0.194436 -0.358751
0.045000 6.962883 280.048676 -0.000000 0.356724 0.477576 -0.118775 -24.869568 288.704896 -0.000000 0.141373 0.194426 -0.358746
0.050000 6.733635 279.673867 -0.000000 0.356732 0.477602 -0.118781 -24.545891 288.840256 -0.000000 0.141369 0.194428 -0.358739
0.055000 6.549454 279.287926 -0.000000 0.356742 0.477592 -0.118782 -24.155927 289.068182 -0.000000 0.141368 0.194430 -0.358728
0.060000 6.383034 278.918366 -0.000000 0.356742 0.477610 -0.118782 -23.767817 289.357928 -0.000000 0.141377 0.194409 -0.358731
0.065000 6.301685 278.576962 -0.000000 0.356757 0.477619 -0.118788 -23.349060 289.679648 -0.000000 0.141379 0.194396 -0.358729
0.070000 6.272614 278.266433 -0.000000 0.356765 0.477630 -0.118793 -22.962956 289.991314 -0.000000 0.141380 0.194400 -0.358720
0.075000 6.273384 277.983062 -0.000000 0.356773 0.477635 -0.118798 -22.656089 290.246855 -0.000000 0.141368 0.194392 -0.358721
0.080000 6.265174 277.723871 -0.000000 0.356782 0.477645 -0.118800 -22.488250 290.400905 -0.000000 0.141375 0.194398 -0.358715
0.085000 6.221275 277.484448 -0.000000 0.356772 0.477654 -0.118798 -22.494411 290.424573 -0.000000 0.141381 0.194397 -0.358715
0.090000 6.137301 277.259233 -0.000000 0.356769 0.477671 -0.118803 -22.673723 290.307752 -0.000000 0.141393 0.194380 -0.358697
0.095000 6.043873 277.047555 -0.000000 0.356774 0.477678 -0.118806 -22.983794 290.053436 -0.000000 0.141405 0.194371 -0.358709
0.100000 5.929417 276.859020 -0.000000 0.356764 0.477692 -0.118808 -23.417421 289.676654 -0.000000 0.141417 0.194359 -0.358706
0.105000 5.837740 276.712821 -0.000000 0.356752 0.477698 -0.118804 -23.896627 289.217255 -0.000000 0.141437 0.194358 -0.358694
0.110000 5.770589 276.637302 -0.000000 0.356729 0.477713 -0.118801 -24.387037 288.716448 -0.000000 0.141460 0.194335 -0.358702
0.115000 5.800730 276.659755 -0.000000 0.356719 0.477723 -0.118809 -24.795514 288.207262 -0.000000 0.141476 0.194330 -0.358697
0.120000 5.913917 276.800850 -0.000000 0.356710 0.477729 -0.118816 -25.134080 287.701408 -0.000000 0.141496 0.194324 -0.358693
0.125000 6.077048 277.061996 -0.000000 0.356682 0.477737 -0.118797 -25.432418 287.213036 -0.000000 0.141518 0.194310 -0.358694
0.130000 6.297302 277.414901 -0.000000 0.356671 0.477735 -0.118805 -25.663885 286.777235 -0.000000 0.141540 0.194307 -0.358688
0.135000 6.502869 277.808121 -0.000000 0.356647 0.477740 -0.118818 -25.865074 286.431472 -0.000000 0.141557 0.194300 -0.358685
0.140000 6.683558 278.182595 -0.000000 0.356642 0.477741 -0.118815 -25.998433 286.209454 -0.000000 0.141570 0.194312 -0.358690
0.145000 6.785354 278.498705 -0.000000 0.356631 0.477729 -0.118802 -26.087098 286.117821 -0.000000 0.141582 0.194319 -0.358682
0.150000 6.813896 278.743260 -0.000000 0.356629 0.477725 -0.118790 -26.127506 286.139657 -0.000000 0.141582 0.194327 -0.358697
0.155000 6.789568 278.918210 -0.000000 0.356628 0.477710 -0.118787 -26.126364 286.235306 -0.000000 0.141580 0.194345 -0.358684
0.160000 6.734484 279.035685 -0.000000 0.356645 0.477703 -0.118789 -26.097541 286.358640 -0.000000 0.141563 0.194357 -0.358684
0.165000 6.679884 279.121020 -0.000000 0.356669 0.477664 -0.118801 -26.045129 286.476138 -0.000000 0.141545 0.194377 -0.358699
0.170000 6.634178 279.197026 -0.000000 0.356698 0.477637 -0.118799 -25.982386 286.575606 -0.000000 0.141515 0.194414 -0.358694
0.175000 6.601514 279.263037 -0.000000 0.356737 0.477613 -0.118793 -25.904148 286.665833 -0.000000 0.141470 0.194443 -0.358681
0.180000 6.596079 279.300766 -0.000000 0.356792 0.477555 -0.118793 -25.777594 286.769304 -0.000000 0.141426 0.194479 -0.358679
0.185000 6.579752 279.297876 -0.000000 0.356832 0.477492 -0.118792 -25.615451 286.914218 -0.000000 0.141379 0.194525 -0.358667
0.190000 6.574616 279.256769 -0.000000 0.356896 0.477428 -0.118806 -25.376424 287.133070 -0.000000 0.141338 0.194591 -0.358670
0.195000 6.533900 279.191071 -0.000000 0.356945 0.477384 -0.118799 -25.111284 287.431561 -0.000000 0.141295 0.194632 -0.358658
0.200000 6.537956 279.104321 -0.000000 0.357012 0.477333 -0.118795 -24.750413 287.805763 -0.000000 0.141221 0.194700 -0.358663
0.205000 6.466191 278.990242 -0.000000 0.357070 0.477280 -0.118806 -24.426549 288.222495 -0.000000 0.141222 0.194755 -0.358606
0.210000 6.398014 278.835287 -0.000000 0.357138 0.477203 -0.118823 -24.066255 288.660030 -0.000000 0.141173 0.194805 -0.358608
0.215000 6.236099 278.634303 -0.000000 0.357186 0.477160 -0.118813 -23.784039 289.082637 -0.000000 0.141123 0.194851 -0.358610
0.220000 5.991475 278.379789 -0.000000 0.357232 0.477134 -0.118812 -23.586069 289.475129 -0.000000 0.141078 0.194887 -0.358610
0.225000 5.704724 278.069231 -0.000000 0.357277 0.477096 -0.118816 -23.452636 289.836149 -0.000000 0.141037 0.194920 -0.358604
0.230000 5.391657 277.713760 -0.000000 0.357311 0.477060 -0.118826 -23.391639 290.167513 -0.000000 0.141005 0.194948 -0.358606
0.235000 5.080747 277.336574 -0.000000 0.357347 0.477045 -0.118820 -23.391895 290.472194 -0.000000 0.140985 0.194978 -0.358608
0.240000 4.791139 276.973157 -0.000000 0.357351 0.477022 -0.118814 -23.447603 290.747550 -0.000000 0.140962 0.194989 -0.358603
0.245000 4.571816 276.672342 -0.000000 0.357356 0.477002 -0.118815 -23.526061 290.987264 -0.000000 0.140948 0.195008 -0.358605
0.250000 4.448423 276.487461 -0.000000 0.357362 0.477000 -0.118819 -23.623180 291.181430 -0.000000 0.140946 0.195016 -0.358607
0.255000 4.450642 276.452095 -0.000000 0.357361 0.476996 -0.118814 -23.722357 291.319483 -0.000000 0.140949 0.195007 -0.358622
0.260000 4.580963 276.571302 -0.000000 0.357344 0.476978 -0.118807 -23.819670 291.383277 -0.000000 0.140960 0.194994 -0.358611
0.265000 4.798929 276.838130 -0.000000 0.357320 0.476984 -0.118807 -23.942919 291.352318 -0.000000 0.140978 0.194978 -0.358607
0.270000 5.088486 277.245794 -0.000000 0.357301 0.477014 -0.118816 -24.082880 291.226740 -0.000000 0.141000 0.194978 -0.358628
0.275000 5.418173 277.786969 -0.000000 0.357266 0.477015 -0.118814 -24.243092 291.026368 -0.000000 0.141036 0.194961 -0.358626
0.280000 5.758066 278.442236 -0.000000 0.357223 0.477039 -0.118803 -24.433860 290.774371 -0.000000 0.141070 0.194922 -0.358629
0.285000 6.141195 279.159764 -0.000000 0.357196 0.477056 -0.118817 -24.605700 290.487861 -0.000000 0.141110 0.194915 -0.358631
0.290000 6.486224 279.858940 -0.000000 0.357152 0.477080 -0.118805 -24.822883 290.163582 -0.000000 0.141154 0.194885 -0.358629
0.295000 6.786022 280.453200 -0.000000 0.357119 0.477103 -0.118810 -25.062970 289.804399 -0.000000 0.141205 0.194850 -0.358640
0.300000 7.021151 280.877096 -0.000000 0.357084 0.477126 -0.118810 -25.313263 289.416475 -0.000000 0.141230 0.194819 -0.358649
0.305000 7.120359 281.104640 -0.000000 0.357055 0.477198 -0.118804 -25.619394 289.006534 -0.000000 0.141279 0.194790 -0.358645
0.310000 7.178625 281.146931 -0.000000 0.357039 0.477237 -0.118820 -25.862783 288.608162 -0.000000 0.141261 0.194750 -0.358697
